<svg width="56" height="36" viewBox="0 0 56 36" fill="none" xmlns="http://www.w3.org/2000/svg">
<path d="M0.7 -2.38419e-06H14.95C18.65 -2.38419e-06 21.9167 0.749998 24.75 2.25C27.5833 3.71667 29.7833 5.78333 31.35 8.45C32.9167 11.0833 33.7 14.1 33.7 17.5C33.7 20.9 32.9167 23.9333 31.35 26.6C29.7833 29.2333 27.5833 31.3 24.75 32.8C21.9167 34.2667 18.65 35 14.95 35H0.7V-2.38419e-06ZM14.75 31.8C17.8167 31.8 20.5 31.2 22.8 30C25.1 28.7667 26.8833 27.0833 28.15 24.95C29.4167 22.7833 30.05 20.3 30.05 17.5C30.05 14.7 29.4167 12.2333 28.15 10.1C26.8833 7.93333 25.1 6.25 22.8 5.05C20.5 3.81666 17.8167 3.2 14.75 3.2H4.4V31.8H14.75ZM45.0262 35.3C43.0262 35.3 41.1762 34.8667 39.4762 34C37.7762 33.1333 36.3928 31.9 35.3262 30.3L37.5262 27.8C39.4595 30.6667 41.9762 32.1 45.0762 32.1C49.4095 32.1 51.5762 29.5333 51.5762 24.4V3.2H38.7762V-2.38419e-06H55.2262V24.25C55.2262 27.9167 54.3595 30.6833 52.6262 32.55C50.9262 34.3833 48.3928 35.3 45.0262 35.3Z" fill="#F9EA69"/>
</svg>
